# xmcd
#
# Track frame offsets: 
#        175
#        15705
#        29142
#        39515
#        50330
#        60080
#        72615
#        84772
#        98417
#        109025
#
# Disc length: 1678 seconds
#
# Revision: 0
# Processed by: cddbd v1.5.2PL0 Copyright (c) Steve Scherf et al.
# Submitted via: ExactAudioCopy v0.95b4
#
DISCID=74068c0a
DTITLE=Percy Sledge - Wanted Again
DYEAR=1900
DGENRE=Country
TTITLE0=Keep the fire burning
TTITLE1=Wanted again
TTITLE2=Kiss an angel good morning
TTITLE3=Hey good lookin'
TTITLE4=If you've got the money, honey
TTITLE5=He'll have to go
TTITLE6=Today I started loving you again
TTITLE7=She thinks I still care
TTITLE8=Wabash cannonball
TTITLE9=For the good times
EXTD=
EXTT0=
EXTT1=
EXTT2=
EXTT3=
EXTT4=
EXTT5=
EXTT6=
EXTT7=
EXTT8=
EXTT9=
PLAYORDER=
